<svg width="19" height="17" fill="none" xmlns="http://www.w3.org/2000/svg"><path d="M16.083 8.781a.36.36 0 00-.53 0l-2.095 2.094a.36.36 0 00.25.625h1.563c-.531 2.156-2.75 3.813-5.438 4v-9h1.625a.38.38 0 00.375-.375v-.25a.403.403 0 00-.375-.375H9.833V4.437a1.936 1.936 0 001.47-2C11.27 1.407 10.426.563 9.426.532A1.972 1.972 0 007.333 2.5a1.98 1.98 0 001.5 1.938V5.5H7.208a.38.38 0 00-.375.375v.25c0 .219.157.375.375.375h1.625v9c-2.718-.188-4.937-1.844-5.468-4h1.562a.36.36 0 00.25-.625L3.083 8.781a.36.36 0 00-.53 0L.457 10.875a.36.36 0 00.25.625h1.657c.562 3.031 3.656 5 6.968 5 3.438 0 6.375-2.125 6.938-5h1.656a.36.36 0 00.25-.625l-2.094-2.094zM8.333 2.5c0-.531.438-1 1-1 .532 0 1 .469 1 1 0 .563-.468 1-1 1-.562 0-1-.438-1-1zm-6.093 8l.593-.563.563.563H2.24zm13 0l.593-.563.563.563H15.24z" fill="#FCFCFC"/></svg>