<svg version="1.0" xmlns="http://www.w3.org/2000/svg" width="682.667" height="682.667" viewBox="0 0 512 512"><path d="M107.9 2.7c-9 4.6-12.8 12-12.9 25v6.1l-19.7.4c-17.3.3-20.5.7-25.1 2.5-10.4 4.2-19 12.9-22.4 22.6-1.6 4.9-1.7 16.2-1.8 213.3 0 229.7-.5 213.1 6.3 223.1 4.5 6.5 11.9 11.9 19.6 14.3 6.2 2 9.7 2 204.1 2s197.9 0 204.1-2c7.7-2.4 15.1-7.8 19.6-14.3 6.8-10 6.3 6.6 6.3-222.7 0-231.3.6-213-7-223.2-4.3-5.7-12.8-12-18.8-13.9-2.1-.7-12.3-1.4-23.4-1.6l-19.8-.5v-6.1c0-3.4-.5-8-1-10.1C412.1.8 388.9-6 375.8 5.8c-5.9 5.3-7.8 10-7.8 19.9V34H144v-8.3c0-9.9-1.9-14.6-7.8-19.9-7.3-6.6-18.9-7.8-28.3-3.1zm18.5 14.4c2.4 1.9 2.6 2.6 2.6 9.5V34h-19v-6c0-6.1 1.8-11.4 4.2-12.3 3.3-1.3 9.6-.6 12.2 1.4zm271.7-.8c2.8 2.1 3.9 5.4 3.9 11.6V34h-19v-7.4c0-6.9.2-7.6 2.6-9.5 3-2.4 9.9-2.8 12.5-.8zM95.2 63.2c.3 12.4.6 14.9 2.5 18.5 3.9 7.2 12 12.3 19.7 12.3 3.9 0 6.2-1.5 7.4-4.9 1.8-5.1-1.1-8.4-9.3-10.8C111 77 110 74 110 60.7V49h258v13.7c0 11.2.4 14.5 1.9 17.8 5.1 11.1 19.4 17.2 25.6 11 1.4-1.3 2.5-3.6 2.5-5 0-3.3-4.1-7.5-7.3-7.5-1.3 0-3.6-.9-5.1-2.1-2.6-2-2.6-2.2-2.6-15V49h33.6c21.1 0 35.1.4 37.9 1.1 5.5 1.4 12.2 7 14.6 12.3 1.7 3.7 1.9 7.3 1.9 41.3V141l-161.1.2-161.1.3-2.4 2.8c-2.9 3.4-3 5.6-.3 9.1l2 2.6H471v99.5c0 108.4.3 102.1-5.7 107.6-4.9 4.5-7.7 4.9-38.4 4.9-27 0-29.2.1-34.6 2.1-6.8 2.6-13.8 9.2-17.3 16.4-2.4 4.9-2.5 5.6-3 37-.3 22.4-.9 32.6-1.7 34.1-2.1 3.6-8.1 8.3-11.5 8.9-1.8.3-70.6.4-152.8.3l-149.5-.3-4.8-2.8c-3.3-1.9-5.6-4.4-7.7-8l-3-5.2V156h42c40.7 0 42.1-.1 44-2 2.5-2.5 2.6-7.1.1-10.1l-1.9-2.4-42.1-.3-42.1-.3v-37.2c0-34 .2-37.6 1.9-41.3 2.3-5 9-10.9 13.9-12.2 2.1-.6 11.4-1 20.9-1.1l17.1-.1.4 14.2zM461 382.3c0 .1-16.8 17-37.2 37.5L386.5 457l.5-31.3c.7-44.7-1.9-42 41-42.7 16.2-.3 30.3-.7 31.3-.8.9-.1 1.7-.1 1.7.1zm7.2 103.1c-2 3.4-4.5 6.1-7.7 8.1l-4.8 3-198.7.3-198.7.2-5.4-2.8c-4.2-2.1-6.1-4-8.6-8.2-1.8-3-3.3-6.7-3.3-8.3v-2.9l3.3 2c8.8 5.5.9 5.3 173.3 5l158.9-.3 6.5-3.2c5.7-2.8 11.5-8.2 47-43.8l40.5-40.5.3 43.1.2 43.2-2.8 5.1z"/><path d="M82.5 186.9c-4.8 1.2-7.5 3-9.5 6.4-1.8 2.9-2 5.2-2 25.7 0 24.8.3 25.9 6.6 30.1 2.6 1.7 5 1.9 25.4 1.9 20.8 0 22.7-.2 25.8-2 6.2-3.8 7.2-7.9 7.2-30 0-18.3-.1-19.9-2.2-24-4-7.8-6.2-8.5-28.8-8.7-10.7-.1-20.8.2-22.5.6zm38.3 31.8l.2 17.3H86v-35l17.3.2 17.2.3.3 17.2zm63.7-31.8c-4.8 1.2-7.5 3-9.5 6.4-1.8 2.9-2 5.2-2 25.5 0 24.7.4 26.6 6.3 30.2 2.9 1.8 5.1 2 25.7 2 33 0 32.5.5 32.5-32 0-19.8-.2-21.8-2-25-4-6.8-6.6-7.5-28.5-7.7-10.7-.1-20.8.2-22.5.6zm38.3 31.8l.2 17.3h-35v-35l17.3.2 17.2.3.3 17.2zm63.5-31.8c-4.7 1.2-8 3.6-10 7.4-1.6 2.8-1.8 6-1.8 24.7 0 32.5-.5 32 32.5 32s32 .9 32-32.2c0-32.4.2-32.2-30-32.5-10.7-.1-21 .2-22.7.6zm37.7 31.6V236h-35v-16.8c0-9.3.3-17.2.7-17.5.3-.4 8.2-.7 17.5-.7H324v17.5zm64.3-31.6c-4.7 1.2-8 3.6-10 7.4-1.6 2.8-1.8 6-1.8 24.7 0 32.5-.5 32 32.5 32 20.4 0 22.8-.2 25.4-1.9 6.3-4.2 6.6-5.3 6.6-30.1 0-32.7.3-32.4-30-32.7-10.7-.1-21 .2-22.7.6zm37.7 31.6V236h-35v-16.8c0-9.3.3-17.2.7-17.5.3-.4 8.2-.7 17.5-.7H426v17.5zM81.5 279.7c-3.3.9-7.4 4.3-9.1 7.4-1.2 2.5-1.5 6.8-1.2 25.9.3 22.8.3 22.8 2.8 25.5 4.9 5.2 6.3 5.5 29.2 5.5 24 0 26.4-.6 30.3-7.1 1.8-3.1 2-5.2 2-25.6 0-20.8-.1-22.3-2.1-24.9-5-6.8-5.5-6.9-28.7-7.1-11.7 0-22.1.1-23.2.4zm39.3 32l.2 17.3H86v-35l17.3.2 17.2.3.3 17.2zm61.8-31.7c-1.5.5-3.7 1.7-4.8 2.7-4.5 4-4.8 6.1-4.8 29.3 0 24.1.2 25.3 5.8 29.5 2.5 1.8 4.5 2 24.9 2.3 25.2.3 27.5-.1 31.5-6.7 2.2-3.4 2.3-4.5 2.3-25.1 0-19.7-.2-21.8-2-24.9-1.1-1.9-3.3-4.3-4.8-5.5-2.7-2-4.2-2.1-24-2.3-11.7-.1-22.5.2-24.1.7zm40.2 31.7l.2 17.3h-35v-35l17.3.2 17.2.3.3 17.2zm60.6-31.3c-4 1.8-7.1 5.8-8.5 10.9-.7 2.5-.9 11.4-.7 23.1.3 17.8.5 19.4 2.6 22.7 3.9 6.4 6.3 6.9 30.2 6.9 23.7 0 26.3-.6 30-6.5 1.8-3 2-4.9 2-25.6 0-20.4-.2-22.7-2-25.6-3.9-6.5-5.1-6.8-29-7-16.5-.2-22.2 0-24.6 1.1zm40.6 31.1V329h-35v-16.8c0-9.3.3-17.2.7-17.5.3-.4 8.2-.7 17.5-.7H324v17.5zm64.3-29.6c-4.7 1.2-8 3.6-10 7.4-1.6 2.8-1.8 6-1.8 24.7 0 32.5-.5 32 32.5 32 20.4 0 22.8-.2 25.4-1.9 6.3-4.2 6.6-5.3 6.6-30.1 0-32.7.3-32.4-30-32.7-10.7-.1-21 .2-22.7.6zm37.7 31.6V331h-35v-16.8c0-9.3.3-17.2.7-17.5.3-.4 8.2-.7 17.5-.7H426v17.5zM79 373.8c-1.9.9-4.5 3.2-5.7 5.1-2.2 3.3-2.3 4.2-2.3 25.6 0 21.4.1 22.3 2.3 25.6 4.2 6.3 6.6 6.9 30.3 6.9 20.2 0 21.2-.1 24.4-2.3 7.4-5 7.5-5.3 7.5-30.2s-.1-25.2-7.5-30.3c-3.2-2.1-4.2-2.2-24.4-2.2-18.1 0-21.6.3-24.6 1.8zm42 30.7V422H86v-35h35v17.5zm60.5-31.1c-1.6.7-4.1 2.6-5.5 4.1l-2.5 2.7v48.7l3 3.1c4.5 4.6 7.8 5.2 30.7 4.8 22.6-.3 23.2-.5 28.2-7.2 2-2.6 2.1-4.1 2.1-25.1 0-24.9-.1-25.2-7.5-30.3-3.2-2.1-4.1-2.2-24.4-2.2-15.3.1-21.9.4-24.1 1.4zm41.5 31.1V422h-35v-35h35v17.5zm59-30.3c-6.3 4.3-7.5 7-7.5 16.8 0 10.5 1.4 13 7.5 13 5.5 0 7-2.3 7-10.3V387h35v35h-34.6l-1.1-3c-2-5.4-10.4-5.3-12.7.2-1.7 3.9-.6 9.1 2.6 12.5 4.3 4.8 7.2 5.3 28.8 5.3 21.7 0 24.4-.5 29-5.5l2.5-2.7v-48.6l-2.5-2.7c-4.6-5-7.2-5.5-29.8-5.5-20 0-21 .1-24.2 2.2z"/></svg>