<svg xmlns="http://www.w3.org/2000/svg" width="30.409" height="36.491"><g fill="#cf0d12"><path d="M15.743 24.41h-1.077l-5.1-5.1 1.075-1.075 4.561 4.561 4.561-4.561 1.075 1.075z"/><path d="M14.444 13.684h1.52v9.123h-1.52zm-5.141 13.28h12v2h-12zM8.36 10.641H3.041V9.123H8.36a.764.764 0 00.763-.763V3.041h1.518V8.36a2.287 2.287 0 01-2.281 2.281z"/><path d="M27.368 36.491H3.041A3.044 3.044 0 010 33.45V8.356l.222-.538 7.6-7.6L8.356 0h19.012a3.044 3.044 0 013.041 3.041V33.45a3.044 3.044 0 01-3.041 3.041zM1.52 8.671V33.45a1.522 1.522 0 001.52 1.52h24.328a1.521 1.521 0 001.52-1.52V3.041a1.522 1.522 0 00-1.52-1.52h-18.7z"/></g></svg>