<svg width="21" height="15" fill="none" xmlns="http://www.w3.org/2000/svg"><path d="M17.667 6.5c1.375 0 2.5-1.094 2.5-2.5 0-1.375-1.125-2.5-2.5-2.5a2.487 2.487 0 00-2.5 2.5c0 1.406 1.094 2.5 2.5 2.5zm0-4c.812 0 1.5.688 1.5 1.5a1.5 1.5 0 01-1.5 1.5 1.48 1.48 0 01-1.5-1.5 1.5 1.5 0 011.5-1.5zm-7 5c1.906 0 3.5-1.563 3.5-3.5 0-1.906-1.594-3.5-3.5-3.5-1.938 0-3.5 1.594-3.5 3.5 0 1.938 1.562 3.5 3.5 3.5zm0-6c1.375 0 2.5 1.125 2.5 2.5 0 1.406-1.125 2.5-2.5 2.5a2.468 2.468 0 01-2.5-2.5c0-1.375 1.093-2.5 2.5-2.5zm7.625 6h-1.25c-.5 0-.938.156-1.313.406.313.219.563.438.813.719.156-.063.312-.125.5-.125h1.25c.75 0 1.375.688 1.375 1.5 0 .281.218.5.5.5.25 0 .5-.219.5-.5 0-1.375-1.094-2.5-2.375-2.5zm-14.625-1c1.375 0 2.5-1.094 2.5-2.5 0-1.375-1.125-2.5-2.5-2.5a2.487 2.487 0 00-2.5 2.5c0 1.406 1.093 2.5 2.5 2.5zm0-4c.812 0 1.5.688 1.5 1.5a1.5 1.5 0 01-1.5 1.5 1.48 1.48 0 01-1.5-1.5 1.5 1.5 0 011.5-1.5zm9.5 5.625c-1.063 0-1.313.375-2.5.375-1.219 0-1.469-.375-2.532-.375-1.125 0-2.218.531-2.875 1.469a3.772 3.772 0 00-.593 2.031V13c0 .844.656 1.5 1.5 1.5h9a1.5 1.5 0 001.5-1.5v-1.375c0-.75-.25-1.438-.625-2.031-.657-.938-1.75-1.469-2.875-1.469zm2.5 4.875c0 .281-.25.5-.5.5h-9a.494.494 0 01-.5-.5v-1.375c0-.531.125-1.031.437-1.469.406-.625 1.188-1.031 2.031-1.031.875 0 1.188.375 2.532.375s1.625-.375 2.5-.375c.844 0 1.625.406 2.031 1.031.313.438.438.938.438 1.469V13h.03zM5.573 7.906A2.308 2.308 0 004.292 7.5h-1.25C1.729 7.5.667 8.625.667 10c0 .281.218.5.5.5.25 0 .5-.219.5-.5 0-.813.593-1.5 1.375-1.5h1.25c.156 0 .312.063.468.125.25-.281.5-.5.813-.719z" fill="#FCFCFC"/></svg>