<svg width="21" height="17" fill="none" xmlns="http://www.w3.org/2000/svg"><path d="M20.51 5.688l-2.468-4.313a1.036 1.036 0 00-.875-.5c-.157 0-.344.063-.5.156L1.135 9.97c-.468.281-.625.875-.343 1.375l2.468 4.281c.188.344.532.5.875.5a.989.989 0 00.5-.125l15.532-8.938a1.01 1.01 0 00.343-1.375zM4.136 15.155l-2.5-4.312 2.157-1.25 1.375 2.375c.062.125.218.156.343.094l.438-.25c.125-.094.156-.22.094-.344L4.667 9.094l1.718-1 .875 1.5c.063.125.22.156.344.094l.438-.25c.125-.063.156-.22.093-.344l-.875-1.5 1.72-1 1.374 2.375c.063.125.219.156.344.094l.438-.25c.093-.063.156-.22.062-.344L9.854 6.125l1.719-1 .875 1.5c.063.125.219.156.344.094l.406-.25c.125-.063.156-.219.094-.344l-.875-1.5 1.75-1L15.51 6c.093.125.218.156.343.094l.438-.25c.125-.094.156-.219.093-.344L15.01 3.125l2.157-1.25 2.5 4.313-15.532 8.968z" fill="#FCFCFC"/></svg>