<svg width="17" height="17" fill="none" xmlns="http://www.w3.org/2000/svg"><path d="M16.51 4.094c-.062-.282-.312-.532-.593-.625-.313-.063-.625 0-.844.219l-2 2-1.375-.22-.219-1.374 2-2c.219-.219.282-.531.219-.844-.094-.281-.344-.531-.625-.594a4.637 4.637 0 00-4.469 1.25c-1.187 1.188-1.656 2.875-1.219 4.5l-6.03 6.063a2.34 2.34 0 000 3.344c.437.468 1.03.687 1.655.687.657 0 1.25-.219 1.688-.688l6.031-6.03a4.677 4.677 0 004.532-1.22c1.187-1.187 1.656-2.843 1.25-4.468zm-1.937 3.781a3.795 3.795 0 01-3.813.875l-.312-.094-6.438 6.469c-.53.5-1.437.5-1.968 0a1.415 1.415 0 010-1.969L8.51 6.687l-.093-.28a3.795 3.795 0 01.875-3.813c.719-.688 1.656-1.094 2.625-1.094.219 0 .437.031.656.063L10.385 3.75l.438 2.594 2.594.406 2.187-2.156a3.862 3.862 0 01-1.031 3.281zM3.167 13.5c-.282 0-.5.25-.5.5 0 .281.218.5.5.5.25 0 .5-.219.5-.5 0-.25-.25-.5-.5-.5z" fill="#FCFCFC"/></svg>