<svg width="16" height="15" fill="none" xmlns="http://www.w3.org/2000/svg"><path d="M14.438 5.176l-3.993-.574L8.641.965C8.34.336 7.41.31 7.082.965L5.305 4.602l-4.02.574c-.71.11-.984.985-.465 1.504l2.871 2.817-.683 3.964c-.11.711.656 1.258 1.285.93l3.582-1.887 3.555 1.887c.629.328 1.394-.219 1.285-.93l-.684-3.964 2.871-2.817c.52-.52.246-1.394-.464-1.504zm-3.364 3.992l.766 4.43-3.965-2.078-3.992 2.078.765-4.43-3.226-3.117 4.457-.656 1.996-4.047 1.969 4.047 4.457.656-3.227 3.117z" fill="#A8DBFB"/></svg>