<svg width="19" height="17" viewBox="0 0 19 17" fill="none" xmlns="http://www.w3.org/2000/svg">
<path d="M16.0833 8.78125C15.9271 8.625 15.7083 8.625 15.5521 8.78125L13.4583 10.875C13.2083 11.125 13.3958 11.5 13.7083 11.5H15.2708C14.7396 13.6562 12.5208 15.3125 9.83334 15.5V6.5H11.4583C11.6458 6.5 11.8333 6.34375 11.8333 6.125V5.875C11.8333 5.6875 11.6458 5.5 11.4583 5.5H9.83334V4.4375C10.7083 4.21875 11.3646 3.40625 11.3021 2.4375C11.2708 1.40625 10.4271 0.5625 9.42709 0.53125C8.27084 0.46875 7.33334 1.375 7.33334 2.5C7.33334 3.4375 7.95834 4.21875 8.83334 4.4375V5.5H7.20834C6.98959 5.5 6.83334 5.6875 6.83334 5.875V6.125C6.83334 6.34375 6.98959 6.5 7.20834 6.5H8.83334V15.5C6.11459 15.3125 3.89584 13.6562 3.36459 11.5H4.92709C5.23959 11.5 5.42709 11.125 5.17709 10.875L3.08334 8.78125C2.92709 8.625 2.70834 8.625 2.55209 8.78125L0.458344 10.875C0.208344 11.125 0.395844 11.5 0.708344 11.5H2.36459C2.92709 14.5312 6.02084 16.5 9.33334 16.5C12.7708 16.5 15.7083 14.375 16.2708 11.5H17.9271C18.2396 11.5 18.4271 11.125 18.1771 10.875L16.0833 8.78125ZM8.33334 2.5C8.33334 1.96875 8.77084 1.5 9.33334 1.5C9.86459 1.5 10.3333 1.96875 10.3333 2.5C10.3333 3.0625 9.86459 3.5 9.33334 3.5C8.77084 3.5 8.33334 3.0625 8.33334 2.5ZM2.23959 10.5L2.83334 9.9375L3.39584 10.5H2.23959ZM15.2396 10.5L15.8333 9.9375L16.3958 10.5H15.2396Z" fill="#FCFCFC"/>
</svg>
