<svg xmlns="http://www.w3.org/2000/svg" width="30.409" height="36.491" viewBox="0 0 30.409 36.491"><g transform="translate(-2)"><path d="M14.468,18.168H13.391l-5.1-5.1,1.075-1.075,4.561,4.561,4.561-4.561,1.075,1.075Z" transform="translate(3.275 6.242)" fill="#cf0d12"/><rect width="1.52" height="9.123" transform="translate(16.444 13.684)" fill="#cf0d12"/><rect width="12" height="2" transform="translate(11.303 26.964)" fill="#cf0d12"/><path d="M9.319,9.6H4V8.082H9.319a.764.764,0,0,0,.763-.763V2H11.6V7.319A2.287,2.287,0,0,1,9.319,9.6Z" transform="translate(1.041 1.041)" fill="#cf0d12"/><path d="M29.368,36.491H5.041A3.044,3.044,0,0,1,2,33.45V8.356l.222-.538,7.6-7.6L10.356,0H29.368a3.044,3.044,0,0,1,3.041,3.041V33.45A3.044,3.044,0,0,1,29.368,36.491ZM3.52,8.671V33.45a1.522,1.522,0,0,0,1.52,1.52H29.368a1.521,1.521,0,0,0,1.52-1.52V3.041a1.522,1.522,0,0,0-1.52-1.52h-18.7Z" transform="translate(0)" fill="#cf0d12"/></g></svg>