<svg width="21" height="15" viewBox="0 0 21 15" fill="none" xmlns="http://www.w3.org/2000/svg">
<path d="M17.6667 6.5C19.0417 6.5 20.1667 5.40625 20.1667 4C20.1667 2.625 19.0417 1.5 17.6667 1.5C16.2605 1.5 15.1667 2.625 15.1667 4C15.1667 5.40625 16.2605 6.5 17.6667 6.5ZM17.6667 2.5C18.4792 2.5 19.1667 3.1875 19.1667 4C19.1667 4.84375 18.4792 5.5 17.6667 5.5C16.823 5.5 16.1667 4.84375 16.1667 4C16.1667 3.1875 16.823 2.5 17.6667 2.5ZM10.6667 7.5C12.573 7.5 14.1667 5.9375 14.1667 4C14.1667 2.09375 12.573 0.5 10.6667 0.5C8.72922 0.5 7.16672 2.09375 7.16672 4C7.16672 5.9375 8.72922 7.5 10.6667 7.5ZM10.6667 1.5C12.0417 1.5 13.1667 2.625 13.1667 4C13.1667 5.40625 12.0417 6.5 10.6667 6.5C9.26047 6.5 8.16672 5.40625 8.16672 4C8.16672 2.625 9.26047 1.5 10.6667 1.5ZM18.2917 7.5H17.0417C16.5417 7.5 16.1042 7.65625 15.7292 7.90625C16.0417 8.125 16.2917 8.34375 16.5417 8.625C16.698 8.5625 16.8542 8.5 17.0417 8.5H18.2917C19.0417 8.5 19.6667 9.1875 19.6667 10C19.6667 10.2812 19.8855 10.5 20.1667 10.5C20.4167 10.5 20.6667 10.2812 20.6667 10C20.6667 8.625 19.573 7.5 18.2917 7.5ZM3.66672 6.5C5.04172 6.5 6.16672 5.40625 6.16672 4C6.16672 2.625 5.04172 1.5 3.66672 1.5C2.26047 1.5 1.16672 2.625 1.16672 4C1.16672 5.40625 2.26047 6.5 3.66672 6.5ZM3.66672 2.5C4.47922 2.5 5.16672 3.1875 5.16672 4C5.16672 4.84375 4.47922 5.5 3.66672 5.5C2.82297 5.5 2.16672 4.84375 2.16672 4C2.16672 3.1875 2.82297 2.5 3.66672 2.5ZM13.1667 8.125C12.1042 8.125 11.8542 8.5 10.6667 8.5C9.44797 8.5 9.19797 8.125 8.13547 8.125C7.01047 8.125 5.91672 8.65625 5.26047 9.59375C4.88547 10.1875 4.66672 10.875 4.66672 11.625V13C4.66672 13.8438 5.32297 14.5 6.16672 14.5H15.1667C15.9792 14.5 16.6667 13.8438 16.6667 13V11.625C16.6667 10.875 16.4167 10.1875 16.0417 9.59375C15.3855 8.65625 14.2917 8.125 13.1667 8.125ZM15.6667 13C15.6667 13.2812 15.4167 13.5 15.1667 13.5H6.16672C5.88547 13.5 5.66672 13.2812 5.66672 13V11.625C5.66672 11.0938 5.79172 10.5938 6.10422 10.1562C6.51047 9.53125 7.29172 9.125 8.13547 9.125C9.01047 9.125 9.32297 9.5 10.6667 9.5C12.0105 9.5 12.2917 9.125 13.1667 9.125C14.0105 9.125 14.7917 9.53125 15.198 10.1562C15.5105 10.5938 15.6355 11.0938 15.6355 11.625V13H15.6667ZM5.57297 7.90625C5.19797 7.65625 4.76047 7.5 4.29172 7.5H3.04172C1.72922 7.5 0.666718 8.625 0.666718 10C0.666718 10.2812 0.885468 10.5 1.16672 10.5C1.41672 10.5 1.66672 10.2812 1.66672 10C1.66672 9.1875 2.26047 8.5 3.04172 8.5H4.29172C4.44797 8.5 4.60422 8.5625 4.76047 8.625C5.01047 8.34375 5.26047 8.125 5.57297 7.90625Z" fill="#FCFCFC"/>
</svg>
