<svg width="21" height="20" viewBox="0 0 21 20" fill="none" xmlns="http://www.w3.org/2000/svg">
<path d="M9.28572 1.19706C9.62947 0.380601 10.8002 0.380602 11.144 1.19706L13.1727 6.01595C13.3177 6.36015 13.6454 6.59533 14.0215 6.62512L19.2875 7.04219C20.1797 7.11286 20.5415 8.21285 19.8617 8.78812L15.8496 12.1834C15.5631 12.4259 15.4378 12.8065 15.5254 13.1691L16.7512 18.2457C16.9588 19.1058 16.0117 19.7857 15.2478 19.3248L10.7394 16.6043C10.4173 16.4099 10.0123 16.4099 9.69032 16.6043L5.18183 19.3248C4.41795 19.7857 3.4708 19.1058 3.67848 18.2457L4.90427 13.1691C4.99182 12.8065 4.86667 12.4259 4.5801 12.1834L0.567906 8.78812C-0.111874 8.21285 0.249912 7.11286 1.14213 7.04219L6.4082 6.62512C6.78434 6.59533 7.112 6.36015 7.25691 6.01595L9.28572 1.19706Z" fill="#FCFCFC"/>
</svg>
