<svg width="21" height="17" viewBox="0 0 21 17" fill="none" xmlns="http://www.w3.org/2000/svg">
<path d="M20.5105 5.6875L18.0417 1.375C17.8542 1.0625 17.5105 0.875 17.1667 0.875C17.0105 0.875 16.823 0.9375 16.6667 1.03125L1.13547 9.96875C0.666718 10.25 0.510468 10.8438 0.791718 11.3438L3.26047 15.625C3.44797 15.9688 3.79172 16.125 4.13547 16.125C4.29172 16.125 4.47922 16.0938 4.63547 16L20.1667 7.0625C20.6355 6.78125 20.7917 6.15625 20.5105 5.6875ZM4.13547 15.1562L1.63547 10.8438L3.79172 9.59375L5.16672 11.9688C5.22922 12.0938 5.38547 12.125 5.51047 12.0625L5.94797 11.8125C6.07297 11.7188 6.10422 11.5938 6.04172 11.4688L4.66672 9.09375L6.38547 8.09375L7.26047 9.59375C7.32297 9.71875 7.47922 9.75 7.60422 9.6875L8.04172 9.4375C8.16672 9.375 8.19797 9.21875 8.13547 9.09375L7.26047 7.59375L8.97922 6.59375L10.3542 8.96875C10.4167 9.09375 10.573 9.125 10.698 9.0625L11.1355 8.8125C11.2292 8.75 11.2917 8.59375 11.198 8.46875L9.85422 6.125L11.573 5.125L12.448 6.625C12.5105 6.75 12.6667 6.78125 12.7917 6.71875L13.198 6.46875C13.323 6.40625 13.3542 6.25 13.2917 6.125L12.4167 4.625L14.1667 3.625L15.5105 6C15.6042 6.125 15.7292 6.15625 15.8542 6.09375L16.2917 5.84375C16.4167 5.75 16.448 5.625 16.3855 5.5L15.0105 3.125L17.1667 1.875L19.6667 6.1875L4.13547 15.1562Z" fill="#FCFCFC"/>
</svg>
