<svg width="17" height="17" viewBox="0 0 17 17" fill="none" xmlns="http://www.w3.org/2000/svg">
<path d="M16.5105 4.09375C16.448 3.8125 16.198 3.5625 15.9167 3.46875C15.6042 3.40625 15.2917 3.46875 15.073 3.6875L13.073 5.6875L11.698 5.46875L11.4792 4.09375L13.4792 2.09375C13.698 1.875 13.7605 1.5625 13.698 1.25C13.6042 0.96875 13.3542 0.71875 13.073 0.65625C11.448 0.25 9.76047 0.71875 8.60422 1.90625C7.41672 3.09375 6.94797 4.78125 7.38547 6.40625L1.35422 12.4688C0.416718 13.375 0.416718 14.9062 1.35422 15.8125C1.79172 16.2812 2.38547 16.5 3.01047 16.5C3.66672 16.5 4.26047 16.2812 4.69797 15.8125L10.7292 9.78125C12.3542 10.2188 14.073 9.75 15.2605 8.5625C16.448 7.375 16.9167 5.71875 16.5105 4.09375ZM14.573 7.875C13.573 8.84375 12.1042 9.1875 10.7605 8.75L10.448 8.65625L4.01047 15.125C3.47922 15.625 2.57297 15.625 2.04172 15.125C1.51047 14.5625 1.51047 13.7188 2.04172 13.1562L8.51047 6.6875L8.41672 6.40625C7.97922 5.0625 8.32297 3.59375 9.29172 2.59375C10.0105 1.90625 10.948 1.5 11.9167 1.5C12.1355 1.5 12.3542 1.53125 12.573 1.5625L10.3855 3.75L10.823 6.34375L13.4167 6.75L15.6042 4.59375C15.7917 5.78125 15.4167 7 14.573 7.875ZM3.16672 13.5C2.88547 13.5 2.66672 13.75 2.66672 14C2.66672 14.2812 2.88547 14.5 3.16672 14.5C3.41672 14.5 3.66672 14.2812 3.66672 14C3.66672 13.75 3.41672 13.5 3.16672 13.5Z" fill="#FCFCFC"/>
</svg>
