<svg width="16" height="15" viewBox="0 0 16 15" fill="none" xmlns="http://www.w3.org/2000/svg">
<path d="M14.4375 5.17627L10.4453 4.60205L8.64062 0.965332C8.33984 0.336426 7.41016 0.309082 7.08203 0.965332L5.30469 4.60205L1.28516 5.17627C0.574219 5.28564 0.300781 6.16064 0.820312 6.68018L3.69141 9.49658L3.00781 13.4614C2.89844 14.1724 3.66406 14.7192 4.29297 14.3911L7.875 12.5044L11.4297 14.3911C12.0586 14.7192 12.8242 14.1724 12.7148 13.4614L12.0312 9.49658L14.9023 6.68018C15.4219 6.16064 15.1484 5.28564 14.4375 5.17627ZM11.0742 9.16846L11.8398 13.5981L7.875 11.52L3.88281 13.5981L4.64844 9.16846L1.42188 6.05127L5.87891 5.39502L7.875 1.34814L9.84375 5.39502L14.3008 6.05127L11.0742 9.16846Z" fill="#A8DBFB"/>
</svg>
