<svg width="54" height="54" viewBox="0 0 54 54" fill="none" xmlns="http://www.w3.org/2000/svg">
<path fill-rule="evenodd" clip-rule="evenodd" d="M0.333984 27C0.333984 12.2724 12.2731 0.333374 27.0007 0.333374C34.0731 0.333374 40.8559 3.14289 45.8569 8.14383C50.8578 13.1448 53.6673 19.9276 53.6673 27C53.6673 41.7276 41.7283 53.6667 27.0007 53.6667C12.2731 53.6667 0.333984 41.7276 0.333984 27ZM22.1208 38.4134L37.6674 28.7067C38.2492 28.3341 38.6011 27.6909 38.6011 27C38.6011 26.3092 38.2492 25.6659 37.6674 25.2934L22.0674 15.5867C21.453 15.1993 20.6768 15.1755 20.0398 15.5244C19.4028 15.8734 19.005 16.5403 19.0008 17.2667V36.7334C18.9922 37.4774 19.3973 38.1647 20.0524 38.5174C20.7075 38.8702 21.5043 38.8301 22.1208 38.4134Z" fill="#FCFCFC"/>
</svg>
